<?xml version="1.0" encoding="iso-8859-1"?>
<!-- Generator: Adobe Illustrator 19.0.0, SVG Export Plug-In . SVG Version: 6.00 Build 0)  -->
<svg version="1.1" id="Layer_1" xmlns="http://www.w3.org/2000/svg" xmlns:xlink="http://www.w3.org/1999/xlink" x="0px" y="0px"
	 viewBox="0 0 508 508" style="enable-background:new 0 0 508 508;" xml:space="preserve">
<circle style="fill:#54C0EB;" cx="254" cy="254" r="254"/>
<path style="fill:#E6E9EE;" d="M449.2,416.4v-39.6l-70-33.6l0,0l0,0l0,0l0,0l-70,33.6V502C365.2,489.6,414,458.8,449.2,416.4z"/>
<path style="fill:#F9B54C;" d="M423.2,351.2c0,0,5.6,31.2-43.6,55.2h-0.4c-49.2-24-43.6-55.2-43.6-55.2s0,0-0.4,0
	c0-0.4,0-0.8,0.4-1.6c12,14.8,27.2,24.4,43.6,24.4s31.6-9.6,43.6-24.4C423.2,350.4,423.2,350.8,423.2,351.2L423.2,351.2z"/>
<g>
	<path style="fill:#F1543F;" d="M379.2,406L379.2,406L379.2,406L379.2,406z"/>
	<path style="fill:#F1543F;" d="M396.8,410.8l-5.6,16.8H368l-5.6-16.8c9.6-4,17.2-4.8,17.2-4.8S387.2,406.8,396.8,410.8z"/>
</g>
<path style="fill:#FF7058;" d="M396,464.4l-5.2-36.8h-23.2l-8,57.2C372.4,479.2,384.4,472.4,396,464.4z"/>
<g>
	<path style="fill:#2B3B4E;" d="M470.4,386.8c-11.6,19.2-26,36.4-42,51.6c3.2-12,10-46.8,4.8-69.6L470.4,386.8z"/>
	<path style="fill:#2B3B4E;" d="M266,507.6c8-0.4,15.6-1.2,23.2-2C281.6,506.8,273.6,507.2,266,507.6z"/>
	<path style="fill:#2B3B4E;" d="M300.4,503.6L300.4,503.6c-3.6,0.8-7.6,1.2-11.6,2C292.8,505.2,296.8,504.4,300.4,503.6z"/>
	<path style="fill:#2B3B4E;" d="M341.2,492.8c-13.2,4.8-26.8,8.4-40.8,11.2l-7.6-22L270,411.6l-16.4-8l71.6-34.4
		c-6.8,28.8,6,75.6,6,74.8C333.6,458.8,336.8,475.2,341.2,492.8z"/>
</g>
<g>
	<path style="fill:#FFFFFF;" d="M423.2,351.2c0,0,5.6,31.2-44,55.2c0,0,36.8,2.8,47.6,37.6C427.2,444.8,447.2,369.6,423.2,351.2z"/>
	<path style="fill:#FFFFFF;" d="M335.6,351.2c0,0-5.6,31.2,44,55.2c0,0-36.8,2.8-47.6,37.6C331.2,444.8,311.2,369.6,335.6,351.2z"/>
</g>
<path style="fill:#FFD05B;" d="M435.2,316c-6,18-8,28-8.4,28.8l0,0C414,362.4,397.2,374,379.2,374c-17.2,0-32.8-10.4-45.2-26.4
	c0.4,0.4,0.4,0.4,0.4,0.4c-26.8-32.8-8.4-93.6-8.4-93.6c13.6,15.2,56.8,16.4,56.8,16.4c-18.8-3.2-22-18.4-22-18.4
	c3.2,9.2,45.2,14.8,45.2,14.8C449.6,273.6,435.2,316,435.2,316z"/>
<path style="fill:#324A5E;" d="M354,190.4c0,0,59.2-23.6,89.2,30c32.4,57.2-8.4,119.6-16.4,124.4c0,0,2-10,8.4-28.8
	c0,0,14.4-42.4-29.2-48.8c0,0-42.4-5.6-45.2-14.8c0,0,3.2,15.2,22,18.4c0,0-43.2-1.2-56.8-16.4c0,0-18.4,60.8,8.4,94
	c0,0-46.4-37.2-40.8-94.8C293.2,253.6,290.8,174.4,354,190.4z"/>
<g>
	<path style="fill:#E6E9EE;" d="M58.8,416.4c0.8,1.2,2,2.4,2.8,3.6C60.8,418.8,59.6,417.6,58.8,416.4L58.8,416.4z"/>
	<path style="fill:#E6E9EE;" d="M176.4,443.6c-2.4,14.8-5.2,31.2-9.6,48.8c-31.6-11.6-60.4-29.2-84.8-51.6
		c12-32,46.8-34.4,46.8-34.4S165.6,409.2,176.4,443.6z"/>
	<path style="fill:#E6E9EE;" d="M73.6,432.8c2,2,4,4,6,5.6l0,0C77.6,436.8,75.6,434.8,73.6,432.8z"/>
</g>
<path style="fill:#F9B54C;" d="M172.8,351.2c0,0,5.6,31.2-43.6,55.2h-0.4c-49.2-24-43.6-55.2-43.6-55.2s0,0-0.4,0
	c0-0.4,0-0.8,0.4-1.6c12,14.8,27.2,24.4,43.6,24.4s31.6-9.6,43.6-24.4C172.8,350.4,172.8,350.8,172.8,351.2L172.8,351.2z"/>
<polygon style="fill:#F1543F;" points="147.6,406 109.6,406 117.2,428 140.4,428 "/>
<path style="fill:#FF7058;" d="M148.4,485.2l-8-57.2h-23.2l-5.2,36.8C123.6,472.4,135.6,479.2,148.4,485.2z"/>
<g>
	<path style="fill:#324A5E;" d="M300.4,503.6c-15.2,2.8-30.8,4.4-46.4,4.4c-30.8,0-60-5.6-87.2-15.2l0,0c4.4-17.6,7.2-34,9.6-48.8
		c0.4,0.8,12.8-46,6.4-74.8l87.6,42.4l22.8,70.4L300.4,503.6z"/>
	<path style="fill:#324A5E;" d="M79.6,438.4c-16-15.2-30.4-32.4-42-51.6l37.2-18C69.6,392,76.4,426.4,79.6,438.4z"/>
</g>
<path id="SVGCleanerId_0" style="fill:#FFFFFF;" d="M181.2,424c0.4-2.8,0.8-5.6,1.6-8.8C182,418.4,181.6,421.2,181.2,424z"/>
<g>
	<path style="fill:#FFFFFF;" d="M182.8,369.2c0.8,2.8,1.2,6,1.6,9.6C184,375.2,183.2,372,182.8,369.2z"/>
	<path style="fill:#FFFFFF;" d="M184.4,386c0-2.4,0-4.8-0.4-7.2C184.4,380.8,184.4,383.2,184.4,386z"/>
	<path style="fill:#FFFFFF;" d="M184.4,386c0,7.6-0.4,15.2-1.2,22.4C184.4,401.2,184.8,393.2,184.4,386z"/>
	<path style="fill:#FFFFFF;" d="M172.8,351.2c0,0,5.6,31.2-44,55.2c0,0,36.8,2.8,47.6,37.6C176.8,444.8,196.8,369.6,172.8,351.2z"/>
	<path style="fill:#FFFFFF;" d="M84.8,351.2c-24.4,18.4-4,93.6-3.6,92.4C92,409.2,128.8,406,128.8,406
		C79.2,382.4,84.8,351.2,84.8,351.2z"/>
</g>
<g>
	<path id="SVGCleanerId_0_1_" style="fill:#FFFFFF;" d="M181.2,424c0.4-2.8,0.8-5.6,1.6-8.8C182,418.4,181.6,421.2,181.2,424z"/>
</g>
<g>
	<path style="fill:#FFFFFF;" d="M184.8,388.8c0-1.2,0-2.8,0-4c0,0.4,0,0.8,0,1.6C184.4,386.8,184.8,387.6,184.8,388.8z"/>
	<path style="fill:#FFFFFF;" d="M79.6,438.4c0.8,0.8,1.6,1.6,2.4,2.4c-0.4,0.8-0.8,2-0.8,2.8c0,0-0.8-2.4-1.6-6
		C79.6,438,79.6,438,79.6,438.4z"/>
</g>
<path style="fill:#FFD05B;" d="M184.4,316c-6,18-8,28-8.4,28.8l0,0c-12.8,17.6-29.2,29.2-47.6,29.2c-17.2,0-32.8-10.4-45.2-26.4
	c0.4,0.4,0.4,0.4,0.4,0.4c-26.8-33.2-8.4-94-8.4-94c13.6,15.2,56.8,16.4,56.8,16.4c-18.8-3.2-22-18.4-22-18.4
	c3.2,9.2,45.2,14.8,45.2,14.8C199.2,273.6,184.4,316,184.4,316z"/>
<path style="fill:#324A5E;" d="M103.6,190.4c0,0,59.2-23.6,89.2,30c32.4,57.2-8.4,119.6-16.4,124.4c0,0,2-10,8.4-28.8
	c0,0,14.4-42.4-29.2-48.8c0,0-42.4-5.6-45.2-14.8c0,0,3.2,15.2,22,18.4c0,0-43.2-1.2-56.8-16.4c0,0-18.4,60.8,8.4,94
	c0,0-46.4-37.2-40.8-94.8C42.8,253.6,40.4,174.4,103.6,190.4z"/>
<path style="fill:#FFFFFF;" d="M303.6,113.2c0-28-23.2-50.4-51.2-48.8c-24.8,1.2-45.6,22-46.4,46.8c-0.8,16.4,6.8,30.8,18.4,40.4
	c6.4,5.2,10.4,12.8,10.4,20.8v9.6c0,2,1.6,3.2,3.2,3.2h33.6c2,0,3.2-1.6,3.2-3.2v-9.2c0-8.4,4-16,10.4-21.2
	C296.4,142.4,303.6,128.4,303.6,113.2z"/>
<g>
	<rect x="267.6" y="191.2" style="fill:#2B3B4E;" width="8" height="3.6"/>
	<rect x="233.6" y="191.2" style="fill:#2B3B4E;" width="8" height="3.6"/>
</g>
<path style="fill:#324A5E;" d="M271.2,184.8h-33.6v12.4c0,4.8,4,9.2,9.2,9.2H262c4.8,0,9.2-4,9.2-9.2V184.8z"/>
<path style="fill:#E6E9EE;" d="M264.4,103.6c-4.4,0-8,2.4-10,6c-2-3.6-5.6-6-10-6c-6.4,0-11.6,5.2-11.6,11.6s5.2,11.6,11.6,11.6
	c3.6,0,6.4-1.6,8.4-4v62h2.8v-62c2,2.4,5.2,4,8.4,4c6.4,0,11.6-5.2,11.6-11.6S270.8,103.6,264.4,103.6z M244.4,123.6
	c-4.8,0-8.4-4-8.4-8.4c0-4.8,4-8.4,8.4-8.4c4.8,0,8.4,4,8.4,8.4C253.2,120,249.2,123.6,244.4,123.6z M264.4,123.6
	c-4.8,0-8.4-4-8.4-8.4c0-4.8,4-8.4,8.4-8.4c4.8,0,8.4,4,8.4,8.4C273.2,120,269.2,123.6,264.4,123.6z"/>
<path id="SVGCleanerId_1" style="fill:#FFFFFF;" d="M254,59.2L254,59.2c-1.2,0-2.4-1.2-2.4-2.4V41.6c0-1.2,1.2-2.4,2.4-2.4l0,0
	c1.2,0,2.4,1.2,2.4,2.4v15.2C256.4,58,255.2,59.2,254,59.2z"/>
<g>
	<path style="fill:#FFFFFF;" d="M310,115.2L310,115.2c0-1.2,1.2-2.4,2.4-2.4h15.2c1.2,0,2.4,1.2,2.4,2.4l0,0c0,1.2-1.2,2.4-2.4,2.4
		h-15.2C311.2,117.6,310,116.4,310,115.2z"/>
	<path style="fill:#FFFFFF;" d="M178,115.2L178,115.2c0-1.2,1.2-2.4,2.4-2.4h15.2c1.2,0,2.4,1.2,2.4,2.4l0,0c0,1.2-1.2,2.4-2.4,2.4
		h-15.2C179.2,117.6,178,116.4,178,115.2z"/>
</g>
<g>
	<path id="SVGCleanerId_1_1_" style="fill:#FFFFFF;" d="M254,59.2L254,59.2c-1.2,0-2.4-1.2-2.4-2.4V41.6c0-1.2,1.2-2.4,2.4-2.4l0,0
		c1.2,0,2.4,1.2,2.4,2.4v15.2C256.4,58,255.2,59.2,254,59.2z"/>
</g>
<g>
	<path style="fill:#FFFFFF;" d="M293.6,154.8L293.6,154.8c0.8-0.8,2.4-0.8,3.2,0l10.8,10.8c0.8,0.8,0.8,2.4,0,3.2l0,0
		c-0.8,0.8-2.4,0.8-3.2,0L293.6,158C292.8,157.2,292.8,155.6,293.6,154.8z"/>
	<path style="fill:#FFFFFF;" d="M200.4,61.6L200.4,61.6c0.8-0.8,2.4-0.8,3.2,0l10.8,10.8c0.8,0.8,0.8,2.4,0,3.2l0,0
		c-0.8,0.8-2.4,0.8-3.2,0l-10.8-10.8C199.2,64,199.2,62.4,200.4,61.6z"/>
	<path style="fill:#FFFFFF;" d="M293.6,75.6L293.6,75.6c-0.8-0.8-0.8-2.4,0-3.2l10.8-10.8c0.8-0.8,2.4-0.8,3.2,0l0,0
		c0.8,0.8,0.8,2.4,0,3.2l-10.8,10.8C296,76.4,294.4,76.4,293.6,75.6z"/>
	<path style="fill:#FFFFFF;" d="M200.4,168.8L200.4,168.8c-0.8-0.8-0.8-2.4,0-3.2l10.8-10.8c0.8-0.8,2.4-0.8,3.2,0l0,0
		c0.8,0.8,0.8,2.4,0,3.2l-10.8,10.8C202.8,170,201.2,170,200.4,168.8z"/>
</g>
<path style="fill:#324A5E;" d="M171.2,279.2H86.4c-6.8,0-12.4,5.6-12.4,12.4V302c0,6.8,5.6,12.4,12.4,12.4h24.8c3.2,0,6-1.2,8.4-3.2
	c0.8-0.4,6.4-8,9.6-8s8.8,7.6,9.6,8c2.4,2,5.2,3.2,8.4,3.2H172c6.8,0,12.4-5.6,12.4-12.4v-10.4C184,284.8,178,279.2,171.2,279.2z
	 M117.6,302.4c0,3.6-2.8,6.8-6.8,6.8H86c-3.6,0-6.8-2.8-6.8-6.8V292c0-3.6,2.8-6.8,6.8-6.8h24.8c3.6,0,6.8,2.8,6.8,6.8
	C117.6,292,117.6,302.4,117.6,302.4z M134,292v7.2c-1.6-0.8-3.6-1.2-5.2-1.2s-3.6,0.4-5.2,1.2V292c0-2.4-0.8-4.8-2-6.8H136
	C134.8,287.2,134,289.6,134,292z M178,302.4c0,3.6-2.8,6.8-6.8,6.8h-24.8c-3.6,0-6.8-2.8-6.8-6.8V292c0-3.6,2.8-6.8,6.8-6.8h24.8
	c3.6,0,6.8,2.8,6.8,6.8V302.4z"/>
<g>
</g>
<g>
</g>
<g>
</g>
<g>
</g>
<g>
</g>
<g>
</g>
<g>
</g>
<g>
</g>
<g>
</g>
<g>
</g>
<g>
</g>
<g>
</g>
<g>
</g>
<g>
</g>
<g>
</g>
</svg>
