<?xml version="1.0"?>
<svg xmlns="http://www.w3.org/2000/svg" xmlns:xlink="http://www.w3.org/1999/xlink" version="1.1" id="Capa_1" x="0px" y="0px" viewBox="0 0 512.76 512.76" style="enable-background:new 0 0 512.76 512.76;" xml:space="preserve" width="512px" height="512px" class=""><g><path style="fill:#D9EEF7;" d="M458.68,160.752v213.333c0,0-10.667,53.333-53.333,53.333v74.667h-224v-85.333  c0-32-21.333-32-21.333-32h-64c-17.304,0.369-31.631-13.359-32-30.663c-0.01-0.446-0.01-0.891,0-1.337v-39.787  c-8.74-8.141-20.071-12.938-32-13.547c-11.538,0.244-21.089-8.911-21.333-20.449c-0.006-0.295-0.006-0.589,0-0.884l53.333-96.64  v-20.693c0-82.475,66.859-149.333,149.333-149.333h85.333C381.133,11.418,458.68,78.298,458.68,160.752L458.68,160.752z" data-original="#D9EEF7" class=""/><path style="fill:#4C5B66;" d="M405.347,512.752h-224c-5.891,0-10.667-4.776-10.667-10.667v-85.333  c0-19.637-9.141-21.216-10.976-21.333H96.013c-22.895,0.67-41.997-17.347-42.667-40.242c-0.024-0.808-0.024-1.617,0-2.425v-34.677  c-6.133-4.771-13.575-7.558-21.333-7.989c-17.171,0.502-31.498-13.01-32-30.181c-0.018-0.606-0.018-1.213,0-1.819  c0.002-1.802,0.461-3.575,1.333-5.152l52-94.251v-17.931c0.098-57.347,30.78-110.287,80.491-138.88l10.667,18.507  c-43.113,24.764-69.732,70.654-69.824,120.373v20.672c-0.002,1.802-0.461,3.575-1.333,5.152l-51.776,93.867  c0.545,5.143,5.157,8.871,10.301,8.325c0.047-0.005,0.095-0.01,0.142-0.016c14.535,0.633,28.377,6.392,39.072,16.256  c2.284,2.023,3.593,4.927,3.595,7.979v39.765c-0.718,11.064,7.668,20.615,18.732,21.333c0.866,0.056,1.735,0.056,2.602,0h64  c11.072,0,32,8.917,32,42.667v74.667H394.68v-64c0-5.891,4.776-10.667,10.667-10.667c30.837,0,41.141-37.472,42.667-43.84v-52.16  h21.333v53.333c0.007,0.717-0.065,1.432-0.213,2.133c-3.883,19.445-19.787,54.624-53.12,60.928v64.939  C416.013,507.976,411.238,512.752,405.347,512.752L405.347,512.752z" data-original="#4C5B66" class=""/><g>
	<circle style="fill:#D9EEF7;" cx="394.68" cy="107.418" r="21.333" data-original="#D9EEF7" class=""/>
	<circle style="fill:#D9EEF7;" cx="309.347" cy="107.418" r="21.333" data-original="#D9EEF7" class=""/>
</g><path style="fill:#FFE451" d="M352.013,11.418c82.474-0.116,149.427,66.649,149.543,149.123  c0.116,82.474-66.649,149.427-149.123,149.543c-34.518,0.049-67.987-11.862-94.713-33.706l-55.04,55.04V160.752  C202.92,78.377,269.638,11.659,352.013,11.418z M416.013,107.418c0-11.782-9.551-21.333-21.333-21.333  c-11.782,0-21.333,9.551-21.333,21.333s9.551,21.333,21.333,21.333C406.447,128.717,415.978,119.186,416.013,107.418z   M330.68,107.418c0-11.782-9.551-21.333-21.333-21.333c-11.782,0-21.333,9.551-21.333,21.333s9.551,21.333,21.333,21.333  C321.114,128.717,330.645,119.186,330.68,107.418z" data-original="#FFE451" class="active-path"/><g>
	<path style="fill:#4C5B66;" d="M202.68,342.085c-1.402,0.005-2.791-0.271-4.085-0.811c-3.985-1.652-6.582-5.542-6.581-9.856   V160.752C191.809,72.18,263.444,0.213,352.016,0.008s160.539,71.431,160.743,160.002c0.205,88.572-71.431,160.539-160.002,160.744   c-33.763,0.078-66.689-10.502-94.087-30.232l-48.448,48.437C208.221,340.96,205.509,342.084,202.68,342.085z M352.013,22.085   c-76.547,0.088-138.578,62.12-138.667,138.667v144.917l36.832-36.832c3.867-3.873,10.038-4.191,14.283-0.736   c59.323,48.378,146.631,39.506,195.009-19.817s39.505-146.631-19.817-195.009C414.905,33.092,383.947,22.075,352.013,22.085z" data-original="#4C5B66" class=""/>
	<path style="fill:#4C5B66;" d="M309.347,139.418c-17.673,0-32-14.327-32-32s14.327-32,32-32c17.673,0,32,14.327,32,32   S327.02,139.418,309.347,139.418z M309.347,96.752c-5.891,0-10.667,4.776-10.667,10.667s4.776,10.667,10.667,10.667   c5.891,0,10.667-4.776,10.667-10.667S315.238,96.752,309.347,96.752z" data-original="#4C5B66" class=""/>
	<path style="fill:#4C5B66;" d="M394.68,139.418c-17.673,0-32-14.327-32-32s14.327-32,32-32s32,14.327,32,32   S412.353,139.418,394.68,139.418z M394.68,96.752c-5.891,0-10.667,4.776-10.667,10.667s4.776,10.667,10.667,10.667   c5.891,0,10.667-4.776,10.667-10.667S400.571,96.752,394.68,96.752z" data-original="#4C5B66" class=""/>
	<path style="fill:#4C5B66;" d="M352.013,256.752c-47.106-0.053-85.28-38.227-85.333-85.333h21.333c0,35.346,28.654,64,64,64   s64-28.654,64-64h21.333C437.294,218.525,399.12,256.699,352.013,256.752z" data-original="#4C5B66" class=""/>
</g></g> </svg>
