<?xml version="1.0"?>
<svg xmlns="http://www.w3.org/2000/svg" viewBox="-4 0 480 480.09103" width="512px" height="512px" class=""><g transform="matrix(1 0 0 1 2.84217e-14 0)"><path d="m239.074219 136.089844h88.976562v-48h24c13.253907 0 24-10.742188 24-24 0-13.253906-10.746093-24-24-24h-24v-32h-104c-13.257812 0-24 10.746094-24 24v94.585937l9.199219-4.441406c5.761719-2.515625 12.328125-2.441406 18.03125.210937 5.703125 2.648438 9.996094 7.617188 11.792969 13.644532zm0 0" fill="#ffb41f" data-original="#FFB41F" class=""/><path d="m432.050781 320.089844c0 13.257812-10.746093 24-24 24-13.257812 0-24-10.742188-24-24v-24h-40v32h-24c-13.257812 0-24 10.746094-24 24 0 13.257812 10.742188 24 24 24h24v48h104c13.253907 0 24-10.742188 24-24v-104h-40zm0 0" fill="#1cc8eb" data-original="#1CC8EB" class=""/><path d="m448.050781 168.089844h-104v32h24c13.253907 0 24 10.746094 24 24 0 13.257812-10.746093 24-24 24h-24v48h40v24c0 13.257812 10.742188 24 24 24 13.253907 0 24-10.742188 24-24v-24h40v-104c0-13.253906-10.746093-24-24-24zm0 0" fill="#8ef059" data-original="#8EF059" class="" style="fill:#8EF059"/><path d="m320.050781 376.089844c-13.257812 0-24-10.742188-24-24 0-13.253906 10.742188-24 24-24h24v-32h-128v104c0 13.257812 10.742188 24 24 24h104v-48zm0 0" fill="#ebe023" data-original="#EBE023" class="" style="fill:#757574" data-old_color="#767674"/><path d="m204.050781 439.59375c-8.925781-4.546875-19.265625-5.464844-28.847656-2.558594l5.324219-26.625c2.335937-11.65625 3.515625-23.511718 3.523437-35.398437v-71.609375l-9.34375-107.128906 55.511719-26.488282c15.121094-6.75 21.90625-24.480468 15.15625-39.601562-6.753906-15.121094-24.484375-21.90625-39.605469-15.15625l-46.816406 22.609375c-4.976563-6.574219-11.15625-12.144531-18.207031-16.417969 26.128906-13.09375 40.070312-42.226562 33.875-70.789062-6.199219-28.5625-30.960938-49.300782-60.167969-50.3867192-29.207031-1.0859378-55.441406 17.7539062-63.742187 45.7773432-8.300782 28.023438 3.4375 58.113282 28.523437 73.109376-16.746094 8.167968-29.113281 23.210937-33.890625 41.21875l-31.871094 100.414062c-9.015625 28.347656-7.183594 59.03125 5.144532 86.105469 13.074218 28.613281 12.460937 61.617187-1.664063 89.726562l-16.0625 32.121094c-1.242187 2.480469-1.109375 5.425781.351563 7.785156 1.457031 2.355469 4.035156 3.792969 6.808593 3.789063h88c4.417969 0 8-3.582032 8-8 .023438-14.847656-8.226562-28.472656-21.394531-35.335938l3.824219-7.632812c11.582031-23.277344 15.347656-49.671875 10.746093-75.261719l-5.9375-32.640625c-.40625-2.257812.207032-4.582031 1.675782-6.34375 1.472656-1.761719 3.644531-2.78125 5.941406-2.785156 3.742188-.003906 6.953125 2.671875 7.632812 6.351562l10.863282 59.777344c1.761718 9.710938 2.644531 19.558594 2.648437 29.425781v64.445313c0 4.417968 3.582031 8 8 8h88c4.417969 0 8-3.582032 8-8 0-1.554688-.09375-3.109375-.273437-4.65625-1.378906-12.042969-8.820313-22.546875-19.726563-27.839844zm0 0" fill="#d9d9d9" data-original="#D9D9D9" class="active-path" style="fill:#FF7500" data-old_color="#FFAA00"/><g fill="#8c8c8c"><path d="m248.050781 192.089844h16v16h-16zm0 0" data-original="#000000" class="" style="fill:#F9F9F9" data-old_color="#F8F6F6"/><path d="m248.050781 160.089844h16v16h-16zm0 0" data-original="#000000" class="" style="fill:#F9F9F9" data-old_color="#F8F6F6"/><path d="m280.050781 160.089844h16v16h-16zm0 0" data-original="#000000" class="" style="fill:#F9F9F9" data-old_color="#F8F6F6"/><path d="m322.394531 210.433594-26.34375 26.34375v-44.6875h-16v60.6875l-8 8-8-8v-28.6875h-16v12.6875l-26.34375-26.34375-11.3125 11.3125 56 56c3.121094 3.125 8.1875 3.125 11.3125 0l56-56zm0 0" data-original="#000000" class="" style="fill:#F9F9F9" data-old_color="#F8F6F6"/></g></g> </svg>
