<?xml version="1.0"?>
<svg xmlns="http://www.w3.org/2000/svg" height="512px" version="1.1" viewBox="0 -20 615.08688 615" width="512px" class=""><g><g id="surface1">
<path d="M 307.5 99.234375 C 148.632812 99.234375 9.921875 287.699219 9.921875 287.699219 C 9.921875 287.699219 148.632812 466.246094 307.5 466.246094 C 466.367188 466.246094 605.078125 287.699219 605.078125 287.699219 C 605.078125 287.699219 466.367188 99.234375 307.5 99.234375 Z M 307.5 446.40625 C 219.847656 446.40625 148.792969 375.351562 148.792969 287.699219 C 148.792969 200.046875 219.847656 128.992188 307.5 128.992188 C 395.152344 128.992188 466.207031 200.046875 466.207031 287.699219 C 466.207031 375.351562 395.152344 446.40625 307.5 446.40625 Z M 307.5 446.40625 " style=" stroke:none;fill-rule:nonzero;fill:rgb(87.058824%,86.666667%,87.843137%);fill-opacity:1;" data-original="#DEDDE0" class=""/>
<path d="M 307.5 128.992188 C 219.847656 128.992188 148.792969 200.046875 148.792969 287.699219 C 148.792969 375.351562 219.847656 446.40625 307.5 446.40625 C 395.152344 446.40625 466.207031 375.351562 466.207031 287.699219 C 466.207031 200.046875 395.152344 128.992188 307.5 128.992188 Z M 277.742188 168.667969 C 321.566406 168.667969 357.097656 204.195312 357.097656 248.023438 C 357.097656 291.847656 321.566406 327.375 277.742188 327.375 C 233.917969 327.375 198.386719 291.847656 198.386719 248.023438 C 198.386719 204.195312 233.917969 168.667969 277.742188 168.667969 Z M 277.742188 168.667969 " style=" stroke:none;fill-rule:nonzero;fill:rgb(100%,93.72549%,67.843137%);fill-opacity:1;" data-original="#FFEFAD" class=""/>
<path d="M 277.742188 327.375 C 321.566406 327.375 357.097656 291.847656 357.097656 248.023438 L 277.742188 248.023438 L 277.742188 168.667969 C 233.917969 168.667969 198.386719 204.195312 198.386719 248.023438 C 198.386719 291.847656 233.917969 327.375 277.742188 327.375 Z M 277.742188 327.375 " style=" stroke:none;fill-rule:nonzero;fill:rgb(87.843137%,20%,32.156863%);fill-opacity:1;" data-original="#E03352"/>
<path d="M 357.097656 248.023438 C 357.097656 204.195312 321.570312 168.667969 277.742188 168.667969 L 277.742188 248.023438 Z M 357.097656 248.023438 " style=" stroke:none;fill-rule:nonzero;fill:rgb(20%,54.117647%,95.294118%);fill-opacity:1;" data-original="#338AF3"/>
<path d="M 613.070312 281.816406 C 607.289062 273.960938 469.519531 89.3125 307.5 89.3125 C 145.480469 89.3125 7.710938 273.960938 1.929688 281.816406 C -0.699219 285.390625 -0.636719 290.277344 2.085938 293.777344 C 7.878906 301.226562 145.636719 476.164062 307.5 476.164062 C 469.363281 476.164062 607.121094 301.230469 612.914062 293.78125 C 615.636719 290.277344 615.699219 285.390625 613.070312 281.816406 Z M 307.5 456.324219 C 171.527344 456.324219 48.179688 318.082031 22.589844 287.53125 C 47.835938 255.671875 171.378906 109.152344 307.5 109.152344 C 443.621094 109.152344 567.175781 255.691406 592.410156 287.53125 C 566.847656 318.089844 443.621094 456.324219 307.5 456.324219 Z M 307.5 456.324219 " style="fill:#231F20" data-original="#231F20" class="" data-old_color=" stroke:nonefill-rule:nonzero;rgb(13.72549%,12.156863%,12.54902%);fill-opacity:1;"/>
<path d="M 29.761719 79.394531 C 35.242188 79.394531 39.683594 74.953125 39.683594 69.476562 L 39.683594 19.878906 L 89.277344 19.878906 C 94.757812 19.878906 99.199219 15.4375 99.199219 9.960938 C 99.199219 4.480469 94.757812 0.0390625 89.277344 0.0390625 L 29.761719 0.0390625 C 24.285156 0.0390625 19.84375 4.480469 19.84375 9.960938 L 19.84375 69.476562 C 19.84375 74.953125 24.285156 79.394531 29.761719 79.394531 Z M 29.761719 79.394531 " style="fill:#231F20" data-original="#231F20" class="" data-old_color=" stroke:nonefill-rule:nonzero;rgb(13.72549%,12.156863%,12.54902%);fill-opacity:1;"/>
<path d="M 525.722656 19.878906 L 575.320312 19.878906 L 575.320312 69.476562 C 575.320312 74.953125 579.761719 79.394531 585.238281 79.394531 C 590.71875 79.394531 595.15625 74.953125 595.15625 69.476562 L 595.15625 9.960938 C 595.15625 4.484375 590.71875 0.0429688 585.238281 0.0429688 L 525.722656 0.0429688 C 520.246094 0.0429688 515.804688 4.484375 515.804688 9.960938 C 515.804688 15.441406 520.246094 19.878906 525.722656 19.878906 Z M 525.722656 19.878906 " style="fill:#231F20" data-original="#231F20" class="" data-old_color=" stroke:nonefill-rule:nonzero;rgb(13.72549%,12.156863%,12.54902%);fill-opacity:1;"/>
<path d="M 89.277344 555.519531 L 39.679688 555.519531 L 39.679688 505.921875 C 39.679688 500.445312 35.238281 496.003906 29.761719 496.003906 C 24.28125 496.003906 19.839844 500.445312 19.839844 505.921875 L 19.839844 565.4375 C 19.839844 570.917969 24.28125 575.359375 29.761719 575.359375 L 89.277344 575.359375 C 94.753906 575.359375 99.195312 570.917969 99.195312 565.4375 C 99.195312 559.960938 94.753906 555.519531 89.277344 555.519531 Z M 89.277344 555.519531 " style="fill:#231F20" data-original="#231F20" class="" data-old_color=" stroke:nonefill-rule:nonzero;rgb(13.72549%,12.156863%,12.54902%);fill-opacity:1;"/>
<path d="M 585.238281 496.003906 C 579.761719 496.003906 575.320312 500.445312 575.320312 505.921875 L 575.320312 555.519531 L 525.722656 555.519531 C 520.246094 555.519531 515.804688 559.960938 515.804688 565.4375 C 515.804688 570.917969 520.246094 575.359375 525.722656 575.359375 L 585.238281 575.359375 C 590.71875 575.359375 595.15625 570.917969 595.15625 565.4375 L 595.15625 505.921875 C 595.15625 500.445312 590.71875 496.003906 585.238281 496.003906 Z M 585.238281 496.003906 " style="fill:#231F20" data-original="#231F20" class="" data-old_color=" stroke:nonefill-rule:nonzero;rgb(13.72549%,12.156863%,12.54902%);fill-opacity:1;"/>
<path d="M 476.128906 287.699219 C 476.128906 194.570312 400.628906 119.070312 307.5 119.070312 C 214.371094 119.070312 138.875 194.570312 138.875 287.699219 C 138.875 380.828125 214.371094 456.324219 307.5 456.324219 C 400.585938 456.222656 476.023438 380.785156 476.128906 287.699219 Z M 307.5 436.488281 C 225.328125 436.488281 158.710938 369.875 158.710938 287.699219 C 158.710938 205.523438 225.324219 138.910156 307.5 138.910156 C 389.675781 138.910156 456.289062 205.523438 456.289062 287.699219 C 456.195312 369.835938 389.636719 436.394531 307.5 436.488281 Z M 307.5 436.488281 " style="fill:#231F20" data-original="#231F20" class="" data-old_color=" stroke:nonefill-rule:nonzero;rgb(13.72549%,12.156863%,12.54902%);fill-opacity:1;"/>
<path d="M 277.742188 337.296875 C 327.046875 337.296875 367.015625 297.328125 367.015625 248.023438 C 367.015625 198.71875 327.046875 158.75 277.742188 158.75 C 228.4375 158.75 188.46875 198.71875 188.46875 248.023438 C 188.523438 297.304688 228.460938 337.242188 277.742188 337.296875 Z M 346.382812 238.101562 L 287.660156 238.101562 L 287.660156 179.382812 C 318.074219 183.800781 341.960938 207.691406 346.382812 238.101562 Z M 267.824219 179.382812 L 267.824219 248.023438 C 267.824219 253.5 272.265625 257.941406 277.742188 257.941406 L 346.382812 257.941406 C 340.957031 295.902344 305.785156 322.28125 267.824219 316.855469 C 229.863281 311.425781 203.488281 276.253906 208.914062 238.292969 C 213.277344 207.746094 237.277344 183.746094 267.824219 179.382812 Z M 267.824219 179.382812 " style="fill:#231F20" data-original="#231F20" class="" data-old_color=" stroke:nonefill-rule:nonzero;rgb(13.72549%,12.156863%,12.54902%);fill-opacity:1;"/>
<path d="M 386.855469 277.78125 L 446.371094 277.78125 L 446.371094 297.617188 L 386.855469 297.617188 Z M 386.855469 277.78125 " style="fill:#231F20" data-original="#231F20" class="" data-old_color=" stroke:nonefill-rule:nonzero;rgb(13.72549%,12.156863%,12.54902%);fill-opacity:1;"/>
<path d="M 357.097656 307.539062 L 436.449219 307.539062 L 436.449219 327.375 L 357.097656 327.375 Z M 357.097656 307.539062 " style="fill:#231F20" data-original="#231F20" class="" data-old_color=" stroke:nonefill-rule:nonzero;rgb(13.72549%,12.156863%,12.54902%);fill-opacity:1;"/>
<path d="M 406.691406 337.296875 L 426.53125 337.296875 L 426.53125 357.132812 L 406.691406 357.132812 Z M 406.691406 337.296875 " style="fill:#231F20" data-original="#231F20" class="" data-old_color=" stroke:nonefill-rule:nonzero;rgb(13.72549%,12.156863%,12.54902%);fill-opacity:1;"/>
<path d="M 307.5 337.296875 L 396.773438 337.296875 L 396.773438 357.132812 L 307.5 357.132812 Z M 307.5 337.296875 " style="fill:#231F20" data-original="#231F20" class="" data-old_color=" stroke:nonefill-rule:nonzero;rgb(13.72549%,12.156863%,12.54902%);fill-opacity:1;"/>
<path d="M 386.855469 367.050781 L 406.691406 367.050781 L 406.691406 386.890625 L 386.855469 386.890625 Z M 386.855469 367.050781 " style="fill:#231F20" data-original="#231F20" class="" data-old_color=" stroke:nonefill-rule:nonzero;rgb(13.72549%,12.156863%,12.54902%);fill-opacity:1;"/>
<path d="M 287.660156 367.050781 L 376.933594 367.050781 L 376.933594 386.890625 L 287.660156 386.890625 Z M 287.660156 367.050781 " style="fill:#231F20" data-original="#231F20" class="" data-old_color=" stroke:nonefill-rule:nonzero;rgb(13.72549%,12.156863%,12.54902%);fill-opacity:1;"/>
<path d="M 257.902344 396.808594 L 357.097656 396.808594 L 357.097656 416.648438 L 257.902344 416.648438 Z M 257.902344 396.808594 " style="fill:#231F20" data-original="#231F20" class="" data-old_color=" stroke:nonefill-rule:nonzero;rgb(13.72549%,12.156863%,12.54902%);fill-opacity:1;"/>
<path d="M 238.066406 367.050781 L 277.742188 367.050781 L 277.742188 386.890625 L 238.066406 386.890625 Z M 238.066406 367.050781 " style="fill:#231F20" data-original="#231F20" class="" data-old_color=" stroke:nonefill-rule:nonzero;rgb(13.72549%,12.156863%,12.54902%);fill-opacity:1;"/>
<path d="M 208.308594 367.050781 L 228.144531 367.050781 L 228.144531 386.890625 L 208.308594 386.890625 Z M 208.308594 367.050781 " style="fill:#231F20" data-original="#231F20" class="" data-old_color=" stroke:nonefill-rule:nonzero;rgb(13.72549%,12.156863%,12.54902%);fill-opacity:1;"/>
<path d="M 198.386719 337.296875 L 247.984375 337.296875 L 247.984375 357.132812 L 198.386719 357.132812 Z M 198.386719 337.296875 " style="fill:#231F20" data-original="#231F20" class="" data-old_color=" stroke:nonefill-rule:nonzero;rgb(13.72549%,12.156863%,12.54902%);fill-opacity:1;"/>
<path d="M 178.550781 307.539062 L 198.386719 307.539062 L 198.386719 327.375 L 178.550781 327.375 Z M 178.550781 307.539062 " style="fill:#231F20" data-original="#231F20" class="" data-old_color=" stroke:nonefill-rule:nonzero;rgb(13.72549%,12.156863%,12.54902%);fill-opacity:1;"/>
</g></g> </svg>
